<svg fill="none" viewBox="0 0 110.5 83.6" xmlns="http://www.w3.org/2000/svg">
    <path d="M 53.9 44.2 L 54.8 44.3 Q 58.9 44.4 62.9 43.1 Q 66.9 41.8 71.2 40.5 Q 75.5 39.2 80.1 39.2 Q 81.6 39.2 83.35 39.45 Q 85.1 39.7 86.4 40.6 Q 87.7 41.5 87.7 43.5 Q 87.7 45.7 85.85 47.3 Q 84 48.9 82.2 49.7 Q 81.8 49.9 81.6 49.9 Q 81.3 49.9 81.3 49.7 Q 81.3 49.2 82.1 48.9 Q 82.9 48.6 82.9 47.5 Q 82.9 46.3 81.7 45.85 Q 80.5 45.4 79.05 45.3 Q 77.6 45.2 76.8 45.2 Q 73.1 45.2 69.25 45.4 Q 65.4 45.6 61.6 45.6 Q 59.6 45.6 57.55 45.5 Q 55.5 45.4 53.4 45.2 Q 50.3 51.6 46.35 58.35 Q 42.4 65.1 37.3 70.8 Q 32.2 76.5 25.7 80.05 Q 19.2 83.6 11.1 83.6 Q 8.7 83.6 6.1 83.2 Q 3.5 82.8 1.75 81.35 Q 0 79.9 0 76.8 Q 0 76.1 0.4 74.25 Q 0.8 72.4 1.45 70.75 Q 2.1 69.1 2.9 69.1 Q 3.2 69.1 3.25 69.55 Q 3.3 70 3.3 70.2 Q 3.3 73 4.15 75.55 Q 5 78.1 6.95 79.75 Q 8.9 81.4 12.1 81.4 Q 12.6 81.4 13.2 81.35 Q 13.8 81.3 14.3 81.2 Q 17.8 80.5 21.5 77.7 Q 25.2 74.9 28.85 70.65 Q 32.5 66.4 35.95 61.45 Q 39.4 56.5 42.45 51.45 Q 45.5 46.4 47.9 42 Q 50.3 37.6 51.9 34.5 Q 55 28.4 58.9 22.75 Q 62.8 17.1 67.7 12.4 Q 57.7 10.1 47.8 10.1 Q 41.5 10.1 36.2 11.6 Q 30.9 13.1 25.8 17.2 Q 22.9 19.5 20.2 22.65 Q 17.5 25.8 15.8 29.4 Q 14.1 33 14.1 37 Q 14.1 38.8 14.35 41.15 Q 14.6 43.5 15.35 45.7 Q 16.1 47.9 17.55 49.3 Q 19 50.7 21.5 50.7 Q 21.7 50.7 22 50.75 Q 22.3 50.8 22.3 51.1 Q 22.3 51.4 21.75 51.5 Q 21.2 51.6 20.9 51.6 Q 18.8 51.6 16.6 50.6 Q 12.9 48.9 10.85 45.95 Q 8.8 43 8.8 39 Q 8.8 33.3 11.15 28.8 Q 13.5 24.3 17.3 20.75 Q 21.1 17.2 25.8 14.5 Q 30.5 11.8 35.1 9.9 Q 39.5 8 44.4 7.3 Q 49.3 6.6 54.1 6.6 Q 58.7 6.6 63.2 7.1 Q 67.7 7.6 72.2 8.4 Q 76.9 4.7 82.3 2.35 Q 87.7 0 93.8 0 Q 95.6 0 97.8 0.4 Q 100 0.8 101.55 2 Q 103.1 3.2 103.1 5.5 Q 103.1 5.9 102.8 7.15 Q 102.5 8.4 102.05 9.5 Q 101.6 10.6 101.1 10.6 Q 100.8 10.6 100.8 10.3 Q 100.8 9.7 101.05 9.15 Q 101.3 8.6 101.3 7.9 Q 101.3 5.5 99.25 4.3 Q 97.2 3.1 94.6 2.7 Q 92 2.3 90.2 2.3 Q 85.6 2.3 81.7 4.05 Q 77.8 5.8 74.4 8.8 Q 78.9 9.7 83.35 10.85 Q 87.8 12 92.1 13.3 Q 94.1 13.9 96.85 14.65 Q 99.6 15.4 102.35 15.9 Q 105.1 16.4 107.1 16.4 Q 108.3 16.4 109.1 16 Q 109.9 15.6 110.3 15.6 Q 110.5 15.6 110.5 15.9 Q 110.5 16.3 110.25 16.55 L 109.8 17 Q 107.2 18.9 105.4 19.95 Q 103.6 21 100.1 21 Q 98.1 21 96 20.6 Q 93.9 20.2 91.9 19.6 Q 86.6 18 81.25 16.2 Q 75.9 14.4 70.4 13 Q 67.3 17 64.35 22.55 Q 61.4 28.1 58.8 33.8 Q 56.2 39.5 53.9 44.2 Z M 36 56.9 Q 35.8 56.9 35.75 56.7 Q 35.7 56.5 35.7 56.4 Q 35.7 55.8 35.85 55.25 Q 36 54.7 36.1 54.2 Q 37.3 49.7 38.1 44.85 Q 38.9 40 38.9 35.4 Q 38.9 34.6 38.8 33.2 Q 38.7 31.8 38.25 30.6 Q 37.8 29.4 36.6 29.4 Q 35.6 29.4 35.3 30.15 Q 35 30.9 34.5 30.9 Q 34.2 30.9 34.2 30.6 Q 34.2 30.4 34.4 30 Q 35.3 28.1 37 26.4 Q 38.7 24.7 40.9 24.7 Q 42.7 24.7 43.55 25.9 Q 44.4 27.1 44.65 28.75 Q 44.9 30.4 44.9 31.8 Q 44.9 37.6 42.6 43.5 Q 40.3 49.4 37.8 54.6 Q 37.7 55 37.05 55.95 Q 36.4 56.9 36 56.9 Z" />
    <style>
      path { fill: currentColor; }
    </style>
</svg>
